<svg width="32" height="32" xmlns="http://www.w3.org/2000/svg">
 <title>Blue</title>
 <defs>
  <linearGradient id="b" y2="50%" x2="5.575%" y1="50%" x1="95.059%">
   <stop offset="0%" stop-color="#2ED4FF"/>
   <stop offset="98.277%" stop-color="#08F"/>
  </linearGradient>
 </defs>
 <g>
  <title>background</title>
  <rect fill="none" id="canvas_background" height="4.580645" width="4.580645" y="-1" x="-1"/>
 </g>
 <g>
  <title>Layer 1</title>
  <path stroke="null" id="svg_7" d="m9.945731,21.707691l0,0l0,-0.001188l0,0.001188zm0.000823,-0.001188l4.750013,3.429889l-4.750836,3.4287l1.746582,1.261329l6.497418,-4.690624l-6.497418,-4.690624l-1.745759,1.261329zm8.416848,8.034364l11.868036,0l0,-1.781783l-11.868036,0l0,1.781783zm3.568065,-3.713287l8.29997,0l0,-1.781783l-8.29997,0l0,1.781783zm-3.568065,-5.495664l0,1.782972l11.868036,0l0,-1.782972l-11.868036,0z" fill-opacity="null" stroke-opacity="null" stroke-width="0" fill="url(#b)"/>
  <path stroke="null" transform="rotate(-76.79732513427734 16.325403213500977,9.471921920776367) " id="svg_5" d="m12.174773,22.421412c0,0 3.107215,-0.218647 4.75279,-1.054522c1.645576,-0.835886 2.413505,-1.901638 2.413505,-1.901638c0,0 -0.863587,0.919259 -2.075466,1.615768c-0.738846,0.424635 -1.607205,0.766488 -2.488262,0.766488c0,0 1.360276,-0.731381 2.380615,-0.208989c0,0 -0.735039,-0.480629 -2.007615,-0.114928c-1.272651,0.365691 -1.908859,0.156701 -1.908859,0.156701c0,0 2.150136,-0.010443 3.082678,-0.595567c0.932553,-0.585123 1.162945,-0.919412 1.162945,-0.919412c0,0 -0.965443,0.950814 -1.711442,1.065752c-0.745999,0.114938 -2.029546,-0.020958 -2.029546,-0.020958c0,0 1.327397,0.031401 1.744332,-0.146268c0.41686,-0.177578 2.062436,-0.532835 2.358609,0.208989c0,0 -0.329064,-0.783669 -1.832033,-0.553793c-1.502969,0.229876 -1.645661,0.156783 -1.645661,0.156783c0,0 2.665914,-0.982225 4.157913,-0.428422c1.492009,0.553793 1.393263,1.023978 1.393263,1.023978c0,0 -0.098757,-1.629988 -3.740988,-1.337462c0,0 1.700396,-0.240319 2.325805,-0.720938c0.625237,-0.480629 0.669173,-0.794041 0.669173,-0.794041c0,0 -0.713034,1.03435 -1.590755,1.044794c-0.877646,0.010515 -1.129969,-0.06265 -1.129969,-0.06265c0,0 1.711431,-0.376134 2.523297,-0.292608c0.81179,0.083618 2.128217,0.355257 2.819406,-0.835876c0,0 -0.647253,1.138927 -2.413591,0.741906c-1.766252,-0.397092 -2.874216,0.041763 -2.874216,0.041763c0,0 2.676799,-0.491072 3.225371,-0.982134c0.548497,-0.491072 0.614277,-1.337473 0.614277,-1.337473c0,0 -0.230393,1.420999 -1.360276,1.556905c-1.130055,0.135814 -2.841411,0.104413 -3.291237,0.595556c0,0 1.129969,-0.794113 2.303875,-0.689618c1.173819,0.104495 2.984007,1.54638 3.905514,1.170246c0.921496,-0.376134 1.338432,-0.062721 1.338432,-0.062721c0,0 -0.384045,-0.365691 -1.042173,-0.198556c-0.658299,0.167226 -0.800906,0.417979 -1.930875,-0.323846c-1.129969,-0.741824 -3.049799,-1.661308 -4.267554,-0.867277c0,0 5.689965,-1.500983 6.304242,-4.551899c0,0 -0.540947,2.034196 -3.320224,2.939612c-2.779363,0.905416 -2.940157,0.835886 -2.940157,0.835886c0,0 4.285742,-0.431975 6.289775,-4.109858c0,0 -1.74059,2.855994 -4.446783,3.232128c0,0 2.281944,-0.752258 4.051939,-3.050906c1.769748,-2.29873 1.843164,-3.065065 1.843164,-3.065065c0,0 -2.150458,3.677874 -6.217014,4.332762c0,0 3.185328,-0.86743 5.467197,-3.636264c2.281858,-2.768833 1.568749,-3.312183 1.568749,-3.312183c0,0 0.493676,-0.992587 0.120762,-1.21202c0,0 0.735039,-0.794113 0.526566,-1.441886c0,0 -0.526566,2.455349 -3.214411,4.064461c-2.687834,1.60903 -2.918227,1.807576 -2.918227,1.807576c0,0 2.786591,-1.818019 3.664237,-2.69574c0.877646,-0.877649 1.865009,-1.556824 2.435511,-3.437493c0,0 -0.548582,1.859783 -2.281944,3.134524c-1.733287,1.274741 -2.073471,1.253783 -2.073471,1.253783c0,0 3.55452,-1.734411 4.399265,-4.607739c0,0 -0.493676,2.12106 -4.410236,4.148069c0,0 3.92752,-2.204668 4.410236,-4.555604c0,0 0.087711,-0.344804 -0.076815,-0.511948c0,0 0.197503,-0.449309 0.131636,-1.013545c-0.065781,-0.564165 -0.142607,-1.170165 -0.142607,-1.170165c0,0 0.175497,2.382256 -2.259939,4.221162c0,0 2.874302,-3.281016 1.850231,-5.983566c0,0 0.219594,1.490682 -0.467938,2.173267c0,0 0.585205,-1.197942 0.307144,-2.605098c0,0 0.073244,1.490693 -0.658213,2.842008c-0.731468,1.351315 -3.071804,3.970399 -3.071804,3.970399c0,0 2.749883,-3.064983 3.188749,-4.792432c0.43878,-1.727449 0.190275,-2.855851 0.190275,-2.855851c0,0 0.248506,1.615921 -0.819254,3.232056c-1.06776,1.616074 -1.433531,1.797143 -1.433531,1.797143c0,0 2.940318,-2.911773 1.828697,-6.143748c0,0 0.073008,3.273819 -1.141015,4.680904c-1.214259,1.407146 -1.579709,1.448919 -1.579709,1.448919c0,0 2.501291,-1.880751 2.41358,-4.51376c-0.087861,-2.633019 -0.556121,-2.772314 -0.556121,-2.772314c0,0 1.038762,2.228811 -0.628744,4.374382c-1.667581,2.145571 -1.331204,1.741445 -1.331204,1.741445c0,0 2.369569,-2.925534 1.90147,-5.21034c-0.468099,-2.284795 -1.360276,-2.256875 -1.360276,-2.256875c0,0 0.979888,0.61289 0.936038,2.019965c-0.043861,1.407085 -1.448148,4.137626 -1.448148,4.137626c0,0 1.565253,-3.747414 1.141004,-4.903818c-0.424088,-1.156322 -1.316512,-1.504535 -1.316512,-1.504535c0,0 1.740922,0.947343 0.731629,3.48289c0,0 0.628894,-2.409952 -1.053143,-3.538425c0,0 1.199321,1.08671 0.702063,3.106685c0,0 0.146264,-2.479942 -1.448062,-3.32967c0,0 1.023663,0.766345 1.038366,2.312715c0,0 -0.219433,-1.560448 -1.433381,-2.438097c0,0 0.921582,1.337391 0.862954,3.259905c0,0 -0.687532,-1.894441 -1.024071,-3.287672c0,0 -0.058317,0.752339 0.190275,1.685604c0.248591,0.933408 0.365611,1.016945 0.365611,1.016945c0,0 -0.892177,-1.253783 -0.936113,-2.479717c0,0 -0.043861,1.198167 0.336377,2.201269c0,0 -0.72424,-0.55463 -0.815447,-1.783586c-0.001426,-0.018314 -0.002542,-0.036781 -0.003646,-0.055392c0,0 -0.204655,1.79698 0.541344,3.315593c0.745999,1.518685 1.097079,1.657909 1.097079,1.657909c0,0 -1.653125,-1.490764 -1.901717,-3.552502c0,0 -0.029233,1.156169 0.409547,2.159199c0.438791,1.003092 0.906965,1.769437 0.906965,1.769437c0,0 -2.208689,-1.908814 -1.843078,-5.335711c0,0 -0.424088,1.908437 -0.043861,3.357356c0.380238,1.448919 2.252796,3.677884 2.252796,3.677884c0,0 -2.911085,-2.452021 -3.042646,-6.338813c0,0 -0.35108,2.298648 0.987363,4.388307c0,0 -1.974725,-2.131432 -1.930875,-4.158441c0,0 -0.438866,1.023907 -0.065781,2.424029c0.372925,1.400112 2.150136,4.680904 3.9933,5.475017c0,0 -5.002593,-2.570369 -4.673519,-6.979552c0,0 -0.548497,2.006051 0.131636,3.949523c0.680144,1.943391 3.269307,4.91077 3.269307,4.91077c0,0 -3.708087,-3.259905 -4.256669,-6.812479c0,0 -0.175497,-1.086557 0.043936,-1.734411c0,0 -0.899652,0.376134 -0.965432,1.985246c-0.065781,1.60903 0.81178,3.782368 1.426143,5.30779c0.614363,1.525494 1.930789,3.552502 1.930789,3.552502c0,0 -4.278514,-6.227284 -3.664076,-9.278272c0,0 -1.097154,1.316504 -0.965432,3.030111c0.131561,1.713515 1.053143,6.478037 3.620226,8.630417c0,0 -2.764585,-2.089659 -3.532515,-5.892914c0,0 -0.39493,-2.027009 -0.329074,-3.134605c0,0 -0.548497,2.340493 -0.351069,4.095862c0.197427,1.75537 2.259939,5.684006 2.259939,5.684006c0,0 -2.259939,-3.280863 -2.413505,-5.328759c0,0 -0.241363,1.232896 -0.065866,2.36138c0.175497,1.128402 1.18479,3.239018 2.040591,4.471915c0,0 -1.799228,-2.465793 -2.172228,-3.552502c-0.37301,-1.086638 -0.307144,-1.713525 -0.307144,-1.713525c0,0 -0.438866,3.385358 0.263283,4.973501c0.702149,1.588143 2.918152,3.949523 3.071718,5.057038c0,0 -1.031213,-2.570287 -3.269221,-2.967379c-2.238008,-0.397021 -3.510584,0.208989 -3.510584,0.208989c0,0 3.400868,-1.044865 5.222026,0.919484c0,0 0.921496,1.065752 0.943502,2.027009c0,0 -2.36973,-1.588143 -2.742655,-3.761492c-0.373075,-2.173267 -2.106447,-2.507637 -2.106447,-2.507637c0,0 1.930875,0.689618 1.908945,2.570369c-0.02193,1.880741 2.194158,4.095781 2.720724,4.033131c0,0 -1.799228,-0.480629 -2.435511,-1.922514c0,0 0.416936,1.462762 1.316426,2.309091c0.899652,0.846319 0.603478,1.21201 0.603478,1.21201c0,0 -0.307219,-0.908969 -1.206796,-1.671762c-0.899652,-0.762711 -2.084431,-2.079215 -2.095401,-2.967379c-0.01096,-0.888082 -0.987363,-1.776246 -0.987363,-1.776246c0,0 0.76793,0.929927 0.800906,1.598658c0.03289,0.66866 -0.076826,1.713525 1.20671,2.591245c1.283622,0.877649 1.821158,2.455359 1.799228,3.144967c0,0 -0.895995,-2.462383 -3.529019,-2.949902c0,0 2.51608,0.473595 3.408257,3.176379c0,0 -1.66742,-2.702631 -3.890887,-3.413135c0,0 2.369644,0.961257 3.510584,3.315674c0,0 -0.672841,-1.671986 -2.779127,-1.741517c0,0 1.755292,0.222832 2.471897,1.797133c0,0 -0.32175,-0.668507 -1.521242,-0.905416c-1.199482,-0.23691 -2.208614,-1.058871 -1.960023,-1.839131c0,0 -0.307144,1.086485 1.257874,1.811057c1.565178,0.724572 2.222759,2.459565 2.222759,2.459565c0,0 -1.274528,1.149309 -2.305001,2.117824c0.081352,0.54237 0.362286,0.691609 0.623704,0.749001c0.09347,0.020519 2.275585,-2.316635 2.399918,-2.363197z" stroke-width="0" fill="url(#b)"/>
  <path stroke="null" transform="rotate(-95.08662414550781 10.260998725891115,23.447044372558597) " id="svg_8" d="m0.528874,22.222451l2.091475,-2.683393l5.729563,7.347566l9.550997,-12.245943l2.092215,2.681496l-11.643211,14.931232" fill-opacity="null" stroke-opacity="null" stroke-width="0" fill="url(#b)"/>
 </g>
</svg>